<defs>
<font horiz-adv-x="361" ><font-face
    font-family="babelsans"
    units-per-em="1000"
    panose-1="2 0 8 6 2 0 0 2 0 4"
    ascent="923"
    descent="-200"
    alphabetic="0" />
<missing-glyph horiz-adv-x="1000" />
<glyph unicode=";" glyph-name="breve" horiz-adv-x="273" d="M255 728H187Q181 690 168 674T126 658Q101 658 89 675T70 728H6Q9 697 17 671T40 625T77 594T130 583Q161 583 183 594T221 624T244 670T255 728Z" />
<glyph unicode=";" glyph-name="dotaccent" horiz-adv-x="273" d="M183 587V705H77V587H183Z" />
<glyph unicode=";" glyph-name="ring" horiz-adv-x="273" d="M226 654Q226 670 220 688T202 720T172 744T130 754Q107 754 89 745T59 721T41 690T34 656Q34 639 39 621T57 588T87 564T130 554Q154 554 172 563T202 587T220 619T226 654ZM170 653Q170 638 160
624T132 609Q113 609 104 624T94 654Q94 670 103 684T132 698Q150 698 160 684T170 653Z" />
<glyph unicode="&#xa;" glyph-name="hungarumlaut" horiz-adv-x="267" d="M306 733H190L138 587H223L306 733ZM172 733H54L4 588H86L172 733Z" />
<glyph unicode=";" glyph-name="ogonek" horiz-adv-x="273" d="M249 -187V-109Q220 -128 203 -135T172 -142Q152 -142 141 -125T130 -85Q130 -67 134 -47T146 3H74Q67 -29 63 -56T59 -110Q59 -130 64 -150T81 -186T111 -211T154 -221Q177 -221 202 -211T249 -187Z" />
<glyph unicode=";" glyph-name="caron" horiz-adv-x="273" d="M280 733H176L139 660L100 733H-3L82 592H190L280 733Z" />
<glyph unicode="&#xd;" glyph-name="dotlessi" horiz-adv-x="228" d="M156 -13V536H65V-13H156Z" />
<glyph unicode=";" glyph-name="fraction" horiz-adv-x="130" d="M321 741H234L-195 -25H-107L321 741Z" />
<glyph unicode=";" glyph-name="fi" horiz-adv-x="411" d="M349 619V728H258V619H349ZM349 -13V536H259V-13H349ZM259 723Q234 734 215 737T176 741Q131 741 107 721T72 670T59 603T57 536H-4V458H57V-13H148V458H227V536H148Q148 544 148 552T147 568Q147
583 148 597T154 623T170 641T198 648Q206 648 216 646T248 637L259 723Z" />
<glyph unicode=";" glyph-name="fl" horiz-adv-x="411" d="M349 -13V728H258V-13H349ZM260 723Q234 734 215 737T176 741Q131 741 107 721T72 670T59 603T57 536H-4V458H57V-13H148V458H227V536H149Q149 544 149 551T148 567Q148 582 149 596T155 622T170
640T198 647Q206 647 216 645T245 637L260 723Z" />
<glyph unicode=";" glyph-name="Lslash" horiz-adv-x="631" d="M577 -13V77L452 75Q515 137 541 215T567 382Q567 419 562 461T544 543T512 621T463 686T396 730T309 747Q235 747 185 712T105 623T61 505T48 383Q48 295 73 216T163 76L34 78V-13H280V93Q242
115 217 149T176 222T155 304T148 388Q148 430 155 477T181 564T230 630T308 656Q355 656 386 630T435 563T461 475T469 385Q469 343 462 301T439 220T397 148T334 90V-13H577Z" />
<glyph unicode=";" glyph-name="lslash" horiz-adv-x="450" d="M442 445V532H-13V445H48V-13H142V445H285V-13H379V445H442Z" />
<glyph unicode=";" glyph-name="Zcaron" horiz-adv-x="474" d="M401 -13V536H311V292Q311 267 311 228Q311 190 304 154T278 92T222 66Q186 66 169 92T145 156T138 231Q138 269 138 293V536H49V-212H139V13Q154 -4 174 -14T224 -25Q256 -25 277 -15T314 15V-13H401Z" />
<glyph unicode=";" glyph-name="zcaron" horiz-adv-x="454" d="M456 700V775H-24V700H456Z" />
<glyph unicode=" " glyph-name="space" horiz-adv-x="222" />
<glyph unicode="!" glyph-name="exclam" horiz-adv-x="228" d="M163 557V729H57V557Q57 522 59 497T63 436L78 184H143L157 436Q158 454 159 468T161 497T162 525T163 557ZM161 -13V96H59V-13H161Z" />
<glyph unicode="&quot;" glyph-name="quotedbl" horiz-adv-x="292" d="M251 597V729H154V599Q154 566 160 533T172 468H234Q237 489 240 505T245 537Q247 554 249 569T251 597ZM124 597V729H26V599Q26 567 32 534T44 468H108Q110 489 113 505T118 538T122 569T124 597Z" />
<glyph unicode="#" glyph-name="numbersign" horiz-adv-x="457" d="M437 184V276H331L360 451H437V532H373L407 741H326L293 532H194L226 741H147L114 532H-5V449H100L72 273H-5V191H59L24 -25H105L138 184H237L204 -25H284L318 184H437ZM279 448L250 274H152L180
448H279Z" />
<glyph unicode="$" glyph-name="dollar" horiz-adv-x="457" d="M408 198Q408 256 385 307T308 388Q294 396 279 401T248 412V661Q272 649 283 622T300 553L391 569Q383 643 348 691T245 751V786H180V751Q140 744 111 725T63 679T35 617T26 543Q26 465 64 411T178
336V61Q142 74 126 116T104 211L17 191Q22 102 58 46T178 -27V-105H248V-27Q290 -21 320 1T369 54T398 124T408 198ZM180 436Q115 468 115 551Q115 589 131 620T180 666V436ZM317 193Q317 173 313 152T300 113T278 80T246 60V312Q284 293 300 267T317 193Z" />
<glyph unicode="%" glyph-name="percent" horiz-adv-x="730" d="M294 542Q294 570 289 604T269 669T228 720T161 741Q122 741 97 721T57 671T37 608T31 547Q31 520 36 485T55 419T94 366T162 344Q202 344 227 365T268 416T288 481T294 542ZM546 741H466L148 -33H231L546
741ZM661 159Q661 187 656 221T635 286T594 337T527 358Q487 358 462 338T423 288T403 225T397 164Q397 137 402 102T421 36T460 -17T527 -39Q568 -39 594 -19T635 32T655 97T661 159ZM213 545Q213 532 213 511T208 469T193 433T163 418Q145 418 135 432T121 465T116
505T115 538Q115 551 115 572T120 615T134 651T163 666Q182 666 192 652T207 619T212 579T213 545ZM579 162Q579 148 579 127T574 85T559 50T529 35Q510 35 500 49T486 82T481 122T480 155Q480 168 480 189T485 232T500 268T529 283Q548 283 558 269T573 236T578
196T579 162Z" />
<glyph unicode="&amp;" glyph-name="ampersand" horiz-adv-x="547" d="M519 54Q490 81 469 107T431 161Q447 193 457 230T476 311L386 334Q381 310 378 294T370 264L285 401Q328 432 357 475T386 577Q386 607 377 636T350 688T306 726T244 741Q208 741 180 725T134
684T105 627T95 565Q95 521 112 483T153 410Q96 374 60 321T23 195Q23 154 35 115T72 44T133 -6T215 -25Q268 -25 308 1T378 65Q395 42 415 19T465 -28L519 54ZM295 580Q295 544 280 521T238 474Q221 497 204 525T186 584Q186 613 200 635T241 658Q268 658 281
634T295 580ZM319 148Q311 133 300 119T274 93T245 74T213 67Q192 67 175 79T145 110T126 152T119 197Q119 242 142 274T199 336L319 148Z" />
<glyph unicode="&apos;" glyph-name="quotesingle" horiz-adv-x="158" d="M122 597V729H25V596Q25 569 30 537T40 468H106Q108 489 111 505T116 538T120 569T122 597Z" />
<glyph unicode="(" glyph-name="parenleft" horiz-adv-x="273" d="M252 -223Q191 -100 160 18T129 259Q129 325 136 383T159 499T196 616T249 741H178Q109 625 72 508T35 259Q35 134 72 10T178 -223H252Z" />
<glyph unicode=")" glyph-name="parenright" horiz-adv-x="273" d="M245 259Q245 390 208 507T103 741H30Q60 675 82 616T120 500T143 384T151 259Q151 137 120 19T27 -223H105Q172 -113 208 10T245 259Z" />
<glyph unicode="*" glyph-name="asterisk" horiz-adv-x="319" d="M287 585L268 661Q239 649 220 640T183 621Q185 648 187 677T190 741H112Q113 705 114 676T118 621Q100 631 80 640T33 661L13 584Q42 573 64 566T106 554Q91 534 77 513T48 468L107 415Q123 441
132 461T150 499Q159 480 169 460T195 413L257 468Q240 494 226 515T196 554Q217 559 239 566T287 585Z" />
<glyph unicode="+" glyph-name="plus" horiz-adv-x="480" d="M426 307V399H272V594H185V399H31V307H185V111H272V307H426Z" />
<glyph unicode="," glyph-name="comma" horiz-adv-x="228" d="M158 -8V96H59V-13H98Q96 -39 87 -62T50 -102L76 -155Q102 -141 118 -124T143 -89T155 -50T158 -8Z" />
<glyph unicode="-" glyph-name="hyphen" horiz-adv-x="273" d="M223 264V362H-12V264H223Z" />
<glyph unicode="." glyph-name="period" horiz-adv-x="228" d="M160 -13V96H60V-13H160Z" />
<glyph unicode="/" glyph-name="slash" horiz-adv-x="227" d="M232 741H154L-16 -25H63L232 741Z" />
<glyph unicode="0" glyph-name="zero" horiz-adv-x="457" d="M410 353Q410 381 409 420T401 502T382 585T348 659T294 712T215 732Q169 732 137 712T83 660T49 586T30 502T22 421T20 353Q20 324 21 285T29 204T47 121T81 48T136 -5T215 -25Q261 -25 293 -5T347
47T381 121T400 204T408 285T410 353ZM318 353Q318 335 318 306T315 244T306 178T289 119T259 75T215 58Q189 58 171 75T142 118T125 178T117 244T114 306T113 353Q113 371 113 400T116 461T125 527T142 586T170 630T214 647Q246 647 265 623T296 566T311 495T317
432Q318 408 318 387Q318 367 318 353Z" />
<glyph unicode="1" glyph-name="one" horiz-adv-x="457" d="M303 -13V732H240Q217 672 172 624T73 543V442Q115 460 149 483T209 530V-13H303Z" />
<glyph unicode="2" glyph-name="two" horiz-adv-x="457" d="M408 -13V84H135Q155 117 181 145T234 202Q264 235 295 270T351 343T391 424T407 516Q407 557 396 596T361 665T302 713T221 732Q172 732 137 715T79 669T43 599T28 512L119 500Q119 564 142 606T219
648Q241 648 259 639T289 614T307 578T314 534Q314 507 306 481T284 432T253 386T219 345Q184 306 147 267T80 185T29 94T9 -13H408Z" />
<glyph unicode="3" glyph-name="three" horiz-adv-x="457" d="M409 208Q409 233 405 259T390 309T362 353T319 385Q352 412 367 450T383 529Q383 566 372 602T338 667T284 714T209 732Q168 732 137 717T85 676T49 615T29 541L117 521Q125 576 145 611T209 647Q229
647 244 638T269 613T285 579T290 539Q290 483 261 452T165 421L163 335Q185 337 197 338T220 339Q244 339 262 327T293 296T311 253T317 204Q317 178 310 153T290 106T257 72T211 59Q187 59 170 70T142 100T123 144T111 198L22 184Q25 141 39 103T76 36T133 -9T211
-26Q260 -26 297 -5T359 49T396 124T409 208Z" />
<glyph unicode="4" glyph-name="four" horiz-adv-x="457" d="M409 167V257H333V729H261L-3 255V167H243V-13H333V167H409ZM241 259H94L241 526V259Z" />
<glyph unicode="5" glyph-name="five" horiz-adv-x="457" d="M414 238Q414 277 404 320T370 398T312 457T226 480Q202 480 180 473T137 454L164 627H389V719H91L32 336L117 322Q153 390 213 390Q243 390 263 376T296 339T315 288T321 231Q321 203 315 173T296
117T262 76T212 59Q189 59 172 69T143 98T124 141T113 194L22 185Q25 141 38 103T76 36T134 -9T212 -25Q266 -25 304 0T366 64T402 149T414 238Z" />
<glyph unicode="6" glyph-name="six" horiz-adv-x="457" d="M411 228Q411 265 402 307T371 386T315 446T232 470Q194 470 164 453T110 410Q111 446 117 487T136 564T170 623T226 647Q265 647 283 615T310 534L399 542Q395 582 383 616T350 676T299 717T228 732Q179
732 144 711T86 657T49 580T28 493T19 408T17 335Q17 304 19 266T29 187T50 109T87 41T143 -7T224 -25Q275 -25 310 0T368 62T401 144T411 228ZM320 223Q320 197 315 168T299 115T269 75T224 59Q196 59 176 75T143 116T124 171T118 228Q118 254 124 281T143 330T175
366T221 380Q248 380 267 366T298 328T315 278T320 223Z" />
<glyph unicode="7" glyph-name="seven" horiz-adv-x="457" d="M410 635V720H26V626H297Q255 562 221 484T161 322T121 152T105 -13H195Q199 68 216 156T260 329T325 493T410 635Z" />
<glyph unicode="8" glyph-name="eight" horiz-adv-x="457" d="M410 204Q410 260 389 310T317 389Q355 412 371 449T388 531Q388 568 377 604T345 669T291 714T215 732Q172 732 140 715T87 670T56 607T45 534Q45 489 61 452T116 390Q90 376 72 356T43 312T27 261T22
207Q22 165 33 124T69 49T129 -4T216 -25Q265 -25 301 -5T362 47T398 121T410 204ZM298 536Q298 516 293 497T277 462T252 438T217 429Q196 429 181 438T156 463T140 499T135 541Q135 561 140 580T156 614T181 638T216 647Q236 647 251 637T276 612T292 576T298
536ZM320 199Q320 173 314 148T294 104T262 72T216 59Q190 59 171 71T138 104T119 150T112 202Q112 227 118 252T137 297T169 329T214 342Q240 342 260 330T293 297T313 251T320 199Z" />
<glyph unicode="9" glyph-name="nine" horiz-adv-x="457" d="M412 373Q412 411 410 455T399 542T370 624T316 691Q293 711 266 721T208 732Q157 732 121 708T63 647T31 566T21 481Q21 443 30 401T61 322T116 262T200 238Q237 238 267 254T320 297Q318 261 313
220T294 143T259 84T201 60Q160 60 143 90T118 172L31 162Q35 122 47 88T80 29T131 -10T201 -25Q250 -25 285 -4T343 50T380 127T401 214T410 300T412 373ZM315 485Q315 458 310 430T293 379T262 342T215 327Q188 327 169 340T137 376T118 425T112 478Q112 505
118 534T137 589T170 631T217 648Q244 648 262 632T292 592T309 540T315 485Z" />
<glyph unicode=":" glyph-name="colon" horiz-adv-x="228" d="M159 422V532H60V422H159ZM159 -13V96H60V-13H159Z" />
<glyph unicode=";" glyph-name="semicolon" horiz-adv-x="228" d="M159 422V532H59V422H159ZM158 -8V96H59V-13H97Q95 -40 87 -63T50 -102L76 -155Q102 -141 118 -124T143 -89T155 -50T158 -8Z" />
<glyph unicode="&lt;" glyph-name="less" horiz-adv-x="480" d="M426 102V200L132 353L423 503V604L31 395V315L426 102Z" />
<glyph unicode="=" glyph-name="equal" horiz-adv-x="480" d="M426 416V508H31V416H426ZM426 199V290H31V199H426Z" />
<glyph unicode="&gt;" glyph-name="greater" horiz-adv-x="480" d="M425 313V395L32 604V505L325 353L32 200V101L425 313Z" />
<glyph unicode="?" glyph-name="question" horiz-adv-x="457" d="M405 537Q405 579 392 616T355 680T295 724T215 741Q168 741 134 725T76 679T40 610T23 526L114 512Q118 542 125 568T144 613T173 644T217 656Q239 656 257 645T287 616T307 576T314 532Q314 506
304 484T279 441T247 402T216 364Q199 341 190 321T176 280T170 236T169 182H258Q258 219 260 241T268 280T287 312T319 349Q337 370 353 390T380 433T398 481T405 537ZM263 -13V96H164V-13H263Z" />
<glyph unicode="@" glyph-name="at" horiz-adv-x="835" d="M763 348Q763 423 741 493T676 619T569 708T422 742Q352 742 296 720T196 661T121 573T69 465T39 348T29 229Q29 136 53 54T127 -90T256 -187T443 -223Q441 -204 441 -179Q441 -154 445 -137Q355 -137
292 -108T187 -29T127 89T108 237Q108 309 126 384T183 520T279 619T419 658Q482 658 531 632T614 563T667 464T685 348Q685 316 679 282T662 215T632 155T590 105Q582 97 569 87T544 77Q539 77 535 84T530 103Q530 126 534 147T543 191L598 528H509L500 476Q481
503 454 522T390 542Q354 542 324 526T270 482T229 420T200 349T182 279T176 218Q176 188 183 148T209 72T256 11T329 -14Q363 -14 391 4T439 47Q446 19 464 2T521 -15Q548 -15 572 -6T616 18T652 51T683 89Q724 147 743 213T763 348ZM471 321Q471 292 466 258T449
190T421 130T380 86Q370 79 360 75T340 71Q319 71 305 85T283 121T272 166T269 208Q269 238 276 281T299 363T338 430T393 458Q415 458 430 445T454 412T467 368T471 321Z" />
<glyph unicode="A" glyph-name="A" horiz-adv-x="550" d="M543 -13L302 729H207L-18 -13H86L148 206H367L433 -13H543ZM336 300H177Q198 369 219 437T255 578Q273 507 294 438T336 300Z" />
<glyph unicode="B" glyph-name="B" horiz-adv-x="547" d="M497 207Q497 261 474 309T400 383Q432 411 448 450T465 532Q465 625 412 677T267 729H44V-13H270Q376 -13 436 42T497 207ZM371 525Q371 463 342 442T252 421H140V634H243Q276 634 300 630T339 614T363
581T371 525ZM399 203Q399 137 367 109T271 81H140V325H260Q327 325 363 298T399 203Z" />
<glyph unicode="C" glyph-name="C" horiz-adv-x="593" d="M549 231L456 261Q449 221 437 186T405 125T360 84T297 69Q243 69 210 97T157 170T131 265T124 364Q124 411 131 461T158 552T212 621T299 648Q330 648 352 638T392 608T420 561T441 500L535 526Q523 574
503 613T454 681T386 725T300 741Q248 741 208 725T137 679T85 613T51 533T33 447T27 363Q27 321 32 276T49 187T82 106T133 38T206 -8T302 -25Q358 -25 399 -4T471 52T519 134T549 231Z" />
<glyph unicode="D" glyph-name="D" horiz-adv-x="593" d="M536 362Q536 408 529 463T502 570T447 661T357 718Q332 726 305 727T253 729H48V-13H263Q305 -13 348 -3T427 38Q460 66 481 105T514 189T531 279T536 362ZM440 363Q440 328 437 287T422 208T391 140T338
95Q319 87 298 85T254 82H145V634H252Q275 634 300 632T345 619Q375 604 393 575T422 509T436 435T440 363Z" />
<glyph unicode="E" glyph-name="E" horiz-adv-x="547" d="M492 -13V81H145V323H434V417H145V635H479V729H49V-13H492Z" />
<glyph unicode="F" glyph-name="F" horiz-adv-x="502" d="M455 635V729H52V-13H148V320H413V414H148V635H455Z" />
<glyph unicode="G" glyph-name="G" horiz-adv-x="638" d="M573 -13V369L310 368V276H477V141Q463 126 445 114T407 93T365 79T323 74Q266 74 228 99T168 166T136 258T126 360Q126 411 135 462T167 554T227 621T322 647Q358 647 383 636T427 602T458 549T480 479L565
508Q554 560 536 603T488 677T417 724T321 741Q239 741 183 706T93 615T44 490T29 354Q29 286 45 219T97 97T190 9T328 -25Q369 -25 406 -7T478 32V-13H573Z" />
<glyph unicode="H" glyph-name="H" horiz-adv-x="593" d="M515 -13V729H419V427H146V729H50V-13H146V333H419V-13H515Z" />
<glyph unicode="I" glyph-name="I" horiz-adv-x="228" d="M158 -13V729H62V-13H158Z" />
<glyph unicode="J" glyph-name="J" horiz-adv-x="411" d="M342 228V729H246V210Q246 190 245 166T238 120T216 85T172 70Q149 70 135 81T113 111T102 157T98 212L10 197V179Q10 141 17 104T43 39T93 -7T172 -25Q229 -25 262 0T314 62T337 144T342 228Z" />
<glyph unicode="K" glyph-name="K" horiz-adv-x="547" d="M542 -13L291 425L530 729H419L141 383V729H45V-13H143V244L224 339L420 -13H542Z" />
<glyph unicode="L" glyph-name="L" horiz-adv-x="457" d="M420 -13V81H141V729H45V-13H420Z" />
<glyph unicode="M" glyph-name="M" horiz-adv-x="684" d="M606 -13V729H486Q468 664 446 584T401 424T360 276T328 166Q320 193 309 233T285 322T258 423T229 530T201 635T176 729H44V-13H140V512L281 -13H370L508 493V-13H606Z" />
<glyph unicode="N" glyph-name="N" horiz-adv-x="593" d="M514 -13V729H420V200L140 729H47V-13H141V516L420 -13H514Z" />
<glyph unicode="O" glyph-name="O" horiz-adv-x="638" d="M587 357Q587 398 581 442T561 529T525 611T472 679T400 725T306 742Q225 742 171 704T84 608T39 481T25 349Q25 288 40 222T89 101T176 11T305 -25Q383 -25 437 11T524 104T572 228T587 357ZM489 356Q489
309 480 258T450 165T394 95T305 67Q254 67 219 93T163 161T132 251T122 346Q122 374 124 406T132 470T149 530T177 580Q203 612 234 630T307 648Q359 648 394 620T450 549T480 454T489 356Z" />
<glyph unicode="P" glyph-name="P" horiz-adv-x="547" d="M500 511Q500 537 496 562T482 613Q467 652 446 675T397 710T338 725T271 729H48V-13H144V284H251Q273 284 301 286T358 296T411 317T451 351Q477 386 488 427T500 511ZM403 510Q403 447 364 415T256 382H145V634H279Q293
634 312 634T345 628Q361 622 372 610T390 581T400 547T403 510Z" />
<glyph unicode="Q" glyph-name="Q" horiz-adv-x="638" d="M587 357Q587 398 581 442T561 529T525 611T472 679T400 725T306 742Q225 742 171 704T84 608T39 481T25 349Q25 288 40 222T89 101T176 11T305 -25Q383 -25 437 11T524 104T572 228T587 357ZM527 -103L317
3L272 -84L482 -190L527 -103ZM489 356Q489 309 480 258T450 165T394 95T305 67Q254 67 219 93T163 161T132 251T122 346Q122 374 124 406T132 470T149 530T177 580Q203 612 234 630T307 648Q359 648 394 620T450 549T480 454T489 356Z" />
<glyph unicode="R" glyph-name="R" horiz-adv-x="593" d="M576 -13L468 201Q450 236 429 267T375 325Q445 344 482 394T520 523Q520 584 495 635Q480 666 460 684T417 713T366 726T309 729H49V-13H145V313H210Q234 313 248 310T280 292Q291 283 307 260T341 206T377
141T412 76T441 21T458 -13H576ZM425 524Q425 461 392 434T296 406H146V639H314Q369 639 397 609T425 524Z" />
<glyph unicode="S" glyph-name="S" horiz-adv-x="547" d="M492 199Q492 254 476 291T432 352T372 391T304 417Q287 422 271 427T239 438Q219 445 200 453T167 473T144 501T135 542Q135 595 168 619T253 644Q315 644 344 612T380 507L471 516Q468 625 409 683T250
741Q204 741 166 726T101 684T58 618T43 533Q43 480 59 446T103 388T163 351T230 327Q247 322 263 317T295 307Q317 299 336 290T369 267T391 235T399 190Q399 133 363 103T269 72Q195 72 157 114T111 237L24 228Q26 103 93 39T273 -25Q322 -25 362 -8T431 39T476
110T492 199Z" />
<glyph unicode="T" glyph-name="T" horiz-adv-x="502" d="M475 635V729H6V635H192V-13H288V635H475Z" />
<glyph unicode="U" glyph-name="U" horiz-adv-x="593" d="M514 302V729H418V293Q418 247 415 207T397 137T354 90T275 72Q229 72 203 91T164 141T148 212T144 293V729H49V302Q49 243 56 185T88 80T158 4T282 -25Q358 -25 404 4T474 81T506 187T514 302Z" />
<glyph unicode="V" glyph-name="V" horiz-adv-x="547" d="M534 729H433L279 201Q274 183 269 165T259 129L241 198L90 729H-15L212 -13H305L534 729Z" />
<glyph unicode="W" glyph-name="W" horiz-adv-x="775" d="M747 729H648Q621 587 593 454T542 186Q521 321 489 455T425 729H317Q285 584 254 448T194 174Q172 311 145 448T92 729H-8L147 -13H243Q255 42 271 112T304 257T338 411T369 561Q401 418 431 276T494
-13H586L747 729Z" />
<glyph unicode="X" glyph-name="X" horiz-adv-x="548" d="M539 -13L318 378L524 729H418Q377 662 338 599T264 471Q233 536 196 599T121 729H7L207 373L-20 -13H99Q141 62 182 132T260 275Q296 203 336 133T419 -13H539Z" />
<glyph unicode="Y" glyph-name="Y" horiz-adv-x="547" d="M537 729H426Q382 644 340 566T260 407Q222 488 181 566T95 729H-20L207 301V-13H304V301L537 729Z" />
<glyph unicode="Z" glyph-name="Z" horiz-adv-x="502" d="M471 -13V84H111Q142 127 175 176T240 276T305 378T366 475T419 560T462 628V729H36V634H351Q336 614 323 594T295 553L3 91V-13H471Z" />
<glyph unicode="[" glyph-name="bracketleft" horiz-adv-x="228" d="M217 -212V-130H134V647H217V729H43V-212H217Z" />
<glyph unicode="\" glyph-name="backslash" horiz-adv-x="227" d="M232 -25L63 741H-16L154 -25H232Z" />
<glyph unicode="]" glyph-name="bracketright" horiz-adv-x="228" d="M177 -212V729H3V647H86V-130H3V-212H177Z" />
<glyph unicode="^" glyph-name="asciicircum" horiz-adv-x="385" d="M358 342L218 741H149L9 339H106L183 586L264 342H358Z" />
<glyph unicode="_" glyph-name="underscore" horiz-adv-x="457" d="M456 -241V-166H-24V-241H456Z" />
<glyph unicode="`" glyph-name="grave" horiz-adv-x="274" d="M190 587L134 733H13L107 587H190Z" />
<glyph unicode="a" glyph-name="a" horiz-adv-x="457" d="M421 -13Q406 23 400 67T392 159T391 252T392 337Q392 381 387 419T365 486T315 531T225 548Q144 548 95 510T31 379L117 364Q123 392 130 411T147 441T174 458T214 463Q264 463 282 433T300 352V335Q265
321 226 316T149 302T80 273T30 209Q22 191 19 172T16 135Q16 65 55 21T168 -24Q213 -24 246 -9T309 34Q311 24 314 13T323 -13H421ZM300 230Q300 197 295 166T276 111T240 73T182 58Q148 58 130 78T112 134Q112 171 130 187T178 212Q209 221 240 226T300 245V230Z"
/>
<glyph unicode="b" glyph-name="b" horiz-adv-x="457" d="M415 270Q415 309 407 357T377 448T320 519T229 548Q198 548 174 536T130 503V729H39V-13H125V24Q143 3 168 -10T226 -24Q264 -24 293 -10T343 29T378 83T400 146T411 211T415 270ZM324 263Q324 235 320
200T304 133T273 81T223 60Q189 60 170 82T140 136T128 203T125 266Q125 294 129 328T145 393T176 443T226 464Q258 464 277 442T307 389T321 323T324 263Z" />
<glyph unicode="c" glyph-name="c" horiz-adv-x="412" d="M398 176L310 189Q307 161 301 138T283 97T256 69T217 59Q184 59 164 79T133 130T119 197T115 263Q115 293 119 328T134 394T166 445T220 465Q256 465 275 435T304 358L390 373Q377 452 335 500T216 548Q156
548 118 519T59 447T30 353T22 259Q22 217 30 168T59 76T119 5T216 -24Q258 -24 290 -8T344 35T379 99T398 176Z" />
<glyph unicode="d" glyph-name="d" horiz-adv-x="457" d="M391 -13V729H301V502Q282 522 257 535T200 548Q143 548 107 518T50 444T22 351T14 261Q14 222 22 173T52 80T110 6T202 -24Q234 -24 259 -12T303 22V-13H391ZM306 252Q306 224 302 191T287 128T257 79T208
59Q177 59 158 80T127 132T111 198T106 261Q106 287 109 322T122 388T151 442T204 464Q238 464 258 441T289 385T303 316T306 252Z" />
<glyph unicode="e" glyph-name="e" horiz-adv-x="458" d="M415 232V268Q415 311 406 360T375 451T314 520T218 548Q158 548 119 519T57 447T25 352T16 257Q16 211 25 162T57 71T119 3T219 -24Q298 -24 344 23T410 153L319 165Q304 118 281 89T217 60Q188 60 168
76T135 117T115 172T106 232H415ZM321 319H112Q114 344 121 370T142 416T173 450T218 463Q244 463 262 450T292 417T311 370T321 319Z" />
<glyph unicode="f" glyph-name="f" horiz-adv-x="223" d="M253 730Q229 736 212 738T177 741Q130 741 105 722T69 672T56 605T55 536H-6V458H55V-13H146V458H225V536H147Q146 543 146 549Q146 556 146 564Q146 576 146 590Q146 604 150 615T163 634T190 642Q199
642 210 641T241 635L253 730Z" />
<glyph unicode="g" glyph-name="g" horiz-adv-x="457" d="M395 71V536H310V497Q290 520 264 534T203 548Q146 548 110 519T51 447T21 355T12 265Q12 238 16 207T28 145T51 86T87 35T137 0T202 -13Q233 -13 257 -2T302 30Q302 3 300 -27T287 -81T256 -122T198 -139Q161
-139 141 -122T116 -61L27 -53V-72Q27 -111 41 -139T79 -186T134 -214T199 -223Q268 -223 307 -195T365 -124T390 -29T395 71ZM309 268Q309 239 305 205T290 141T259 91T207 71Q175 71 155 91T124 141T110 206T106 271Q106 299 110 332T126 395T156 444T206 464Q237
464 257 444T288 395T304 331T309 268Z" />
<glyph unicode="h" glyph-name="h" horiz-adv-x="457" d="M394 -13V332Q394 368 389 406T368 476T321 528T239 548Q205 548 178 535T130 499V729H39V-13H132V295Q132 338 139 378T177 443Q188 451 201 456T228 461Q251 461 265 451T288 425T300 387T303 342V-13H394Z" />
<glyph unicode="i" glyph-name="i" horiz-adv-x="183" d="M132 623V729H41V623H132ZM132 -13V536H41V-13H132Z" />
<glyph unicode="j" glyph-name="j" horiz-adv-x="177" d="M128 622V729H37V622H128ZM127 -27V536H37V-37V-65Q37 -73 37 -84T33 -107T24 -126T7 -134Q0 -134 -8 -132T-35 -124L-51 -208Q-29 -217 -14 -220T16 -223Q57 -223 79 -203T112 -152T125 -88T127 -27Z" />
<glyph unicode="k" glyph-name="k" horiz-adv-x="411" d="M410 -13L225 336L386 536H279L129 342V729H38V-13H131V212L161 249L294 -13H410Z" />
<glyph unicode="l" glyph-name="l" horiz-adv-x="183" d="M130 -13V729H39V-13H130Z" />
<glyph unicode="m" glyph-name="m" horiz-adv-x="684" d="M615 -13V359Q615 390 610 423T589 485T547 530T477 548Q435 548 405 527T354 475Q337 510 307 529T234 548Q199 548 171 533T122 492V536H38V-13H131V280Q131 305 133 336T143 395T170 441T220 460Q239
460 251 451T269 426T278 392T280 351V-13H374V313Q374 339 378 365T392 413T419 447T462 461Q486 461 498 449T517 418T523 378T524 340V-13H615Z" />
<glyph unicode="n" glyph-name="n" horiz-adv-x="457" d="M394 -13V330Q394 366 390 404T369 475T323 527T241 548Q203 548 174 533T123 492V536H39V-13H132V295Q132 324 135 353T149 406T178 445T228 460Q252 460 266 448T288 418T298 376T301 329V-13H394Z" />
<glyph unicode="o" glyph-name="o" horiz-adv-x="457" d="M419 269Q419 314 409 363T376 453T314 521T216 548Q155 548 116 520T54 450T22 358T13 262Q13 217 22 167T54 74T116 4T216 -24Q273 -24 322 10Q353 33 372 63T402 128T415 199T419 269ZM326 265Q326
234 322 198T305 132T272 81T217 60Q184 60 163 80T129 130T112 196T107 262Q107 292 111 327T128 393T162 444T217 464Q249 464 270 444T303 395T321 330T326 265Z" />
<glyph unicode="p" glyph-name="p" horiz-adv-x="457" d="M416 266Q416 305 408 354T379 446T322 518T230 548Q195 548 170 535T125 499V536H39V-212H131V17Q149 -2 173 -13T225 -24Q281 -24 318 6T376 81T407 176T416 266ZM324 266Q324 240 321 204T307 136T276
82T223 59Q193 59 174 79T143 130T128 194T124 257Q124 285 128 321T145 389T176 444T226 466Q258 466 277 444T306 391T320 326T324 266Z" />
<glyph unicode="q" glyph-name="q" horiz-adv-x="457" d="M419 269Q419 314 409 363T376 453T314 521T216 548Q155 548 116 520T54 450T22 358T13 262Q13 217 22 167T54 74T116 4T216 -24Q273 -24 322 10Q353 33 372 63T402 128T415 199T419 269ZM419 -103L209
4L166 -84L374 -190L419 -103ZM326 265Q326 234 322 198T305 132T272 81T217 60Q184 60 163 80T129 130T112 196T107 262Q107 292 111 327T128 393T162 444T217 464Q249 464 270 444T303 395T321 330T326 265Z" />
<glyph unicode="r" glyph-name="r" horiz-adv-x="269" d="M281 509Q260 527 240 537T196 548Q174 548 156 531T124 495V536H38V-13H130V283Q130 301 131 328T138 382T157 427T196 446Q207 446 219 440T254 417L281 509Z" />
<glyph unicode="s" glyph-name="s" horiz-adv-x="411" d="M369 150Q369 190 357 217T324 263T279 292T229 311Q217 315 205 318T182 325Q168 330 155 335T131 349T114 369T108 397Q108 432 129 448T185 464Q220 464 239 444T265 378L351 392Q339 476 297 512T180
548Q144 548 115 536T65 503T33 452T22 387Q22 347 34 321T65 276T109 247T158 228Q170 223 182 220T205 213Q233 203 255 188T277 141Q277 103 255 82T194 60Q150 60 128 86T98 168L12 149Q26 60 70 18T197 -24Q235 -24 267 -11T321 25T356 80T369 150Z" />
<glyph unicode="t" glyph-name="t" horiz-adv-x="228" d="M224 -9L212 85Q195 82 187 81T170 80Q159 80 154 84T147 96Q144 106 144 117Q144 129 144 140V461H214V536H144V665L53 660V536H3V458H55V159Q55 130 56 99T66 41T96 -2T160 -19Q174 -19 189 -17T224 -9Z" />
<glyph unicode="u" glyph-name="u" horiz-adv-x="458" d="M391 -13V536H300V233Q300 204 297 174T283 118T253 78T202 62Q171 62 156 79T134 122T128 174Q128 202 128 223V536H38V191Q38 165 39 138T48 84T71 34T116 -5Q150 -24 189 -24Q226 -24 255 -9T305 32V-13H391Z" />
<glyph unicode="v" glyph-name="v" horiz-adv-x="411" d="M398 536H304Q275 436 247 343T195 156Q172 250 145 343T89 536H-7L156 -13H237L398 536Z" />
<glyph unicode="w" glyph-name="w" horiz-adv-x="593" d="M577 536H486Q464 440 444 351T402 174Q383 262 366 351T328 536H239Q218 440 198 351T160 172L80 536H-14L117 -13H211L280 324Q294 241 312 158T349 -13H442L577 536Z" />
<glyph unicode="x" glyph-name="x" horiz-adv-x="412" d="M407 -13L247 276L396 536H288Q263 490 240 449T194 367Q174 409 153 450T108 536H-4L141 271L-16 -13H97L196 177Q244 85 294 -13H407Z" />
<glyph unicode="y" glyph-name="y" horiz-adv-x="411" d="M400 536H308L218 223Q207 189 200 159Q177 252 150 345T95 536H-2L156 -1Q152 -16 148 -39T136 -85T115 -124T79 -140Q71 -140 60 -138T26 -129L25 -205Q45 -216 61 -218T92 -221Q130 -221 155 -198T196
-142T223 -71T241 -6L400 536Z" />
<glyph unicode="z" glyph-name="z" horiz-adv-x="411" d="M388 -13V71L112 69Q181 165 245 264T375 461V536H19V456H219H261L2 76V-13H388Z" />
<glyph unicode="{" glyph-name="braceleft" horiz-adv-x="274" d="M254 -223V-134Q248 -134 239 -134T221 -134T203 -132T190 -125Q179 -114 177 -87T175 -25T176 50T172 129T152 202T107 259Q140 286 154 324T173 405T176 491T174 572Q174 623 187 642Q191 648
199 651T218 655T237 656T254 655V741Q235 741 211 741T168 735Q136 723 120 696T97 635Q89 599 89 562T89 488Q89 447 88 414T79 356T55 319T11 304V215Q38 213 53 200T76 163T86 106T88 34Q88 16 88 -2T88 -40Q89 -62 91 -87T101 -137T122 -181T160 -214Q174
-221 190 -222T219 -223H254Z" />
<glyph unicode="|" glyph-name="bar" horiz-adv-x="214" d="M143 -223V741H61V-223H143Z" />
<glyph unicode="}" glyph-name="braceright" horiz-adv-x="274" d="M249 213V306Q222 307 207 320T184 356T175 412T173 484Q173 503 173 521Q173 540 172 559Q172 580 170 605T160 655T138 700T99 732Q85 739 70 740T41 741H7V655Q13 655 22 655T41 655T59 652T72
645Q85 631 86 581Q86 556 85 528T84 468Q84 440 86 411T96 355T118 303T155 259Q121 234 107 196T88 114T84 27T86 -53Q85 -79 83 -96T73 -124Q68 -130 60 -133T43 -137T24 -138T7 -137V-223Q27 -223 51 -223T93 -217Q125 -204 141 -177T165 -117Q173 -81 173
-45T173 29Q173 69 174 102T182 159T205 197T249 213Z" />
<glyph unicode="~" glyph-name="asciitilde" horiz-adv-x="481" d="M450 623L428 742Q371 664 324 664Q304 664 282 675T242 695Q220 707 195 717T141 727Q108 727 71 714T8 669L29 556Q45 575 58 588T84 609T108 622T135 626Q158 626 178 616T218 595Q239 583
263 573T317 563Q352 563 387 578T450 623Z" />
<glyph unicode="&#xa1;" glyph-name="exclamdown" horiz-adv-x="273" d="M182 422V532H80V422H182ZM185 -210V-37Q185 -19 185 -5T183 23T181 51T178 84L163 334H97L84 84Q82 49 80 24T77 -35V-210H185Z" />
<glyph unicode="&#xa2;" glyph-name="cent" horiz-adv-x="457" d="M407 178L318 191Q315 164 308 140T288 98T260 70T221 59Q216 59 213 60L293 411Q298 401 302 388T310 357L397 374Q389 424 372 459T316 517L359 700L295 724L253 546Q245 547 239 547T224 548Q197
548 172 539T126 515Q96 494 78 464T49 399T35 329T31 262Q31 231 35 196T50 126T80 61T129 10L86 -182L149 -206L193 -23Q206 -27 222 -27Q264 -27 296 -10T350 36T387 102T407 178ZM232 466L150 110Q141 126 136 145T128 186T124 227T123 266Q123 296 127 331T143
396T175 446T228 466H232Z" />
<glyph unicode="&#xa3;" glyph-name="sterling" horiz-adv-x="457" d="M425 12L400 105Q373 88 353 80T316 72Q295 72 275 77T234 89T194 100T151 106Q144 106 138 106T124 104Q149 144 164 189T180 284Q180 302 176 317H281V401H160Q152 436 146 471T139 541Q139
562 144 582T161 619T189 646T226 656Q247 656 262 647T289 621T308 582T319 533L408 548Q403 589 390 624T354 686T301 726T227 741Q179 741 145 721T88 670T55 598T44 518Q44 487 48 458T60 399H5V318H81Q83 305 84 293T86 268Q86 213 66 161T-3 73L29 -27Q95
24 150 24Q172 24 192 17T232 0T273 -17T317 -25Q346 -25 371 -14T425 12Z" />
<glyph unicode="&#xa4;" glyph-name="currency" horiz-adv-x="454" d="M450 676Q418 703 377 722T300 741Q239 741 193 718T114 656T61 568T31 466H-11L-24 385H25Q24 371 24 359T26 332H-13L-25 256H35Q44 202 62 152T110 62T187 -1T299 -25Q314 -25 331 -22T367
-13T404 0T438 15L412 108Q407 105 393 99T362 87T325 76T291 71Q254 71 227 87T181 128T149 187T131 255H360L372 329H123V373V384H382L394 463H129Q134 498 147 531T182 590T233 631T298 647Q327 647 354 634T411 589L450 676Z" />
<glyph unicode="&#xa5;" glyph-name="yen" horiz-adv-x="456" d="M451 729H346L238 474Q233 461 227 449T216 423Q211 436 206 449T194 475L80 729H-20L139 373H12V292H172V232H12V154H172V-13H263V154H421V232H263V292H422V379H294L451 729Z" />
<glyph unicode="&#xa6;" glyph-name="brokenbar" horiz-adv-x="214" d="M143 346V741H61V346H143ZM143 -223V172H61V-223H143Z" />
<glyph unicode="&#xa7;" glyph-name="section" horiz-adv-x="457" d="M410 226Q410 269 392 304T346 368T285 423T223 473Q210 484 196 496T171 523T152 554T144 587Q144 616 163 636T210 657Q248 657 262 628T283 550L376 561Q367 644 328 692T206 741Q170 741
142 727T96 688T67 634T57 572Q57 537 68 509T98 454Q59 434 39 396T19 314Q19 275 30 247T61 195T104 151T155 109Q172 95 196 76T242 34T279 -13T295 -59Q295 -93 275 -115T223 -138Q201 -138 187 -130T162 -108T145 -72T133 -24L46 -39Q55 -124 98 -173T223
-223Q261 -223 291 -209T342 -171T374 -116T385 -49Q385 -10 372 23T333 86Q372 111 391 143T410 226ZM322 210Q322 188 311 168T283 134Q263 151 242 167T199 200Q184 212 167 224T136 252T113 285T104 325Q104 351 115 369T146 405Q171 381 198 360T252 316Q283
289 302 263T322 210Z" />
<glyph unicode="&#xa8;" glyph-name="dieresis" horiz-adv-x="273" d="M249 624V733H155V624H249ZM106 624V733H11V624H106Z" />
<glyph unicode="&#xa9;" glyph-name="copyright" horiz-adv-x="609" d="M593 359Q593 422 574 489T517 613T423 705T291 741Q216 741 160 705T65 613T7 490T-12 359Q-12 296 7 229T64 106T159 14T291 -22Q366 -22 422 14T517 106T574 229T593 359ZM523 359Q523
307 508 253T463 155T390 83T291 55Q235 55 192 83T120 155T75 253T59 359Q59 411 74 465T118 563T191 635T291 664Q347 664 390 636T462 563T507 465T523 359ZM443 288L375 314Q367 267 345 240T288 213Q263 213 247 226T220 260T206 306T202 357Q202 382 206
408T221 455T248 491T291 505Q346 505 370 430L435 449Q419 509 383 541T292 573Q245 573 214 553T163 502T136 433T128 358Q128 323 136 285T163 216T213 164T290 143Q353 143 391 183T443 288Z" />
<glyph unicode="&#xaa;" glyph-name="ordfeminine" horiz-adv-x="305" d="M294 367Q281 390 276 421T270 486T270 553T272 612Q272 675 243 708T147 741Q125 741 104 736T65 717T35 684T20 633L92 610Q97 645 109 657T145 669Q176 669 184 651T193 602Q163 594
131 590T71 574T25 540T7 472Q7 449 14 428T34 391T67 366T113 357Q139 357 161 367T201 392Q202 382 207 367H294ZM192 525Q190 487 176 460T125 432Q88 432 88 470Q88 486 98 495T127 510Q143 515 160 518T192 525Z" />
<glyph unicode="&#xab;" glyph-name="guillemotleft" horiz-adv-x="457" d="M395 32L292 257L395 483H313L191 259L313 32H395ZM246 32L143 259L245 483H165L39 255L162 32H246Z" />
<glyph unicode="&#xac;" glyph-name="logicalnot" horiz-adv-x="481" d="M426 202V508H31V416H339V202H426Z" />
<glyph unicode="&#xae;" glyph-name="registered" horiz-adv-x="609" d="M593 359Q593 422 574 489T517 613T423 705T291 741Q216 741 160 705T65 613T7 490T-12 359Q-12 296 7 229T64 106T159 14T291 -22Q366 -22 422 14T517 106T574 229T593 359ZM523 359Q523
307 508 253T463 155T390 83T291 55Q235 55 192 83T120 155T75 253T59 359Q59 411 74 465T118 563T191 635T291 664Q347 664 390 636T462 563T507 465T523 359ZM443 153Q433 173 422 197T399 245T374 291T345 329Q380 343 397 375T414 443Q414 479 402 502T370
537T323 554T270 559H152V152H225V318H237Q256 318 267 307Q276 299 288 280T312 236T335 189T352 153H443ZM339 440Q339 410 323 399T274 388H225V491H271Q304 491 321 482T339 440Z" />
<glyph unicode="&#xaf;" glyph-name="overscore" horiz-adv-x="274" d="M261 594V676H0V594H261Z" />
<glyph unicode="0;" glyph-name="degree" horiz-adv-x="329" d="M297 599Q297 624 288 649T260 694T216 728T155 741Q120 741 94 728T49 695T22 649T13 599Q13 575 22 550T49 503T93 469T155 456Q189 456 215 469T260 502T287 548T297 599ZM224 598Q224 585
220 572T207 548T185 530T155 523Q138 523 126 530T105 548T92 572T87 598Q87 611 91 624T104 648T125 666T155 673Q172 673 185 666T206 648T219 624T224 598Z" />
<glyph unicode="1;" glyph-name="plusminus" horiz-adv-x="452" d="M412 319V410H258V605H171V410H18V319H171V122H258V319H412ZM412 -13V78H18V-13H412Z" />
<glyph unicode="2;" glyph-name="twosuperior" horiz-adv-x="274" d="M261 351V426H126Q147 448 170 468T212 511T245 561T258 624Q258 680 224 709T138 738Q84 738 54 711T9 622L88 610Q96 643 105 653T136 664Q176 664 176 623Q176 603 159 583T126 548Q103
526 81 506T41 462T11 412T-4 351H261Z" />
<glyph unicode="3;" glyph-name="threesuperior" horiz-adv-x="273" d="M256 464Q256 526 208 555Q245 583 245 632Q245 686 213 712T131 738Q106 738 88 733T55 715T30 683T10 636L84 621Q95 649 103 658T129 667Q161 667 161 630Q161 609 148 598T103 586L92
519Q109 515 117 515T134 513Q157 511 166 504T175 470Q175 447 162 431T127 414Q107 414 97 424T77 464L1 454Q12 391 46 367T130 343Q157 343 180 351T220 375T246 413T256 464Z" />
<glyph unicode="4;" glyph-name="acute" horiz-adv-x="273" d="M246 733H127L72 586H156L246 733Z" />
<glyph unicode="5;" glyph-name="mu" horiz-adv-x="676" d="M667 671L143 783L-24 -2L500 -114L667 671ZM567 607L548 521L485 535L413 475L289 666L567 607ZM546 511L482 208L401 225L356 359L546 511ZM397 463L257 348L305 573L244 585L213 441L160 452L209
683L262 672L397 463ZM478 188L452 68L409 203L478 188ZM447 42L435 -14L253 25L310 291L385 55L447 42ZM293 306L235 29L77 63L156 433L209 422L142 107L204 94L240 263L293 306Z" />
<glyph unicode="6;" glyph-name="paragraph" horiz-adv-x="439" d="M433 635V729H180Q130 729 94 713T34 669T-1 601T-13 517Q-13 481 -4 447T23 385T70 338T138 314V-212H227V635H291V-212H378V635H433Z" />
<glyph unicode="7;" glyph-name="middot" horiz-adv-x="228" d="M159 298V407H60V298H159Z" />
<glyph unicode="8;" glyph-name="cedilla" horiz-adv-x="273" d="M217 -114Q217 -82 199 -62T154 -34L164 13H92L69 -86Q94 -86 112 -88T131 -109Q131 -123 119 -129T92 -136T60 -137T34 -136L28 -207Q50 -215 66 -217T96 -219Q118 -219 140 -213T179 -194T206
-161T217 -114Z" />
<glyph unicode="9;" glyph-name="onesuperior" horiz-adv-x="273" d="M192 362V738H133Q116 708 89 681T29 641V567Q59 578 78 588T112 609V362H192Z" />
<glyph unicode="a;" glyph-name="ordmasculine" horiz-adv-x="300" d="M279 549Q279 577 273 611T252 673T210 721T143 741Q102 741 76 722T34 673T12 610T6 547Q6 518 12 485T34 423T76 377T143 358Q183 358 209 377T250 425T272 487T279 549ZM201 550Q201
535 200 515T193 476T176 446T143 433Q122 433 111 445T94 475T87 513T85 548Q85 563 86 583T93 620T110 650T143 663Q163 663 174 651T192 622T199 585T201 550Z" />
<glyph unicode="b;" glyph-name="guillemotright" horiz-adv-x="457" d="M392 256L268 483H188L289 257L188 33H269L392 256ZM241 257L118 482H37L140 258L37 32H119L241 257Z" />
<glyph unicode="c;" glyph-name="onequarter" horiz-adv-x="685" d="M598 741H511L78 -28H166L598 741ZM654 53V120H615V356H545L389 125V53H537V-20H615V53H654ZM191 362V738H132Q115 708 88 681T28 641V567Q58 578 77 588T111 609V362H191ZM534 123H482L534
198V123Z" />
<glyph unicode="d;" glyph-name="onehalf" horiz-adv-x="685" d="M652 -22V52H517Q538 73 561 93T603 135T635 184T648 245Q648 302 613 329T527 357Q475 357 444 332T399 243L477 234Q487 265 496 275T527 286Q567 286 567 246Q567 235 562 225T548 204T531
185T514 169Q493 149 472 129T432 86T402 37T388 -22H652ZM589 741H502L67 -33H155L589 741ZM190 362V738H133Q115 708 88 681T28 641V567Q58 578 77 588T111 610V362H190Z" />
<glyph unicode="e;" glyph-name="threequarters" horiz-adv-x="685" d="M653 53V120H614V365H551L389 125V53H536V-20H614V53H653ZM598 741H512L76 -33H164L598 741ZM254 464Q254 526 205 555Q242 583 242 632Q242 686 210 712T129 738Q78 738 52 715T8 636L81
621Q92 649 100 658T126 667Q159 667 159 630Q159 609 146 598T101 587L88 515Q135 517 153 510T172 471Q172 447 159 431T125 415Q105 415 94 425T76 464L-1 454Q10 391 44 367T128 343Q154 343 177 351T217 375T244 413T254 464ZM533 122H481L533 199V122Z" />
<glyph unicode="f;" glyph-name="questiondown" horiz-adv-x="503" d="M292 422V532H193V422H292ZM432 -7L342 6Q338 -23 331 -49T311 -95T282 -126T239 -138Q216 -138 199 -127T169 -99T150 -59T143 -14Q143 8 149 25T166 59T189 89T215 119Q229 135 242
153T266 193T282 242T287 302L285 336H199Q199 298 197 270T180 219Q171 205 160 193T137 168Q119 147 103 127T76 85T58 37T51 -19Q51 -61 64 -97T101 -162T161 -206T241 -222Q288 -222 322 -205T379 -159T414 -91T432 -7Z" />
<glyph unicode="0;" glyph-name="Agrave" horiz-adv-x="547" d="M329 764L272 909H151L245 764H329ZM543 -13L302 729H207L-18 -13H86L148 206H367L433 -13H543ZM336 300H177Q198 369 219 437T255 578Q273 507 294 438T336 300Z" />
<glyph unicode="1;" glyph-name="Aacute" horiz-adv-x="547" d="M369 909H250L195 763H279L369 909ZM543 -13L302 729H207L-18 -13H86L148 206H367L433 -13H543ZM336 300H177Q198 369 219 437T255 578Q273 507 294 438T336 300Z" />
<glyph unicode="2;" glyph-name="Acircumflex" horiz-adv-x="547" d="M384 765L291 909H208L119 764H225L252 815L277 765H384ZM543 -13L302 729H207L-18 -13H86L148 206H367L433 -13H543ZM336 300H177Q198 369 219 437T255 578Q273 507 294 438T336 300Z" />
<glyph unicode="3;" glyph-name="Atilde" horiz-adv-x="547" d="M400 886H329Q328 878 328 873Q328 869 327 865Q327 858 325 851T313 843Q302 843 292 849T269 863T243 877T213 884Q188 884 171 873T143 843T128 802T123 756H195Q195 780 199 788T211 796Q219
796 230 790T254 776T281 762T312 756Q339 756 355 768T382 798T396 840T400 886ZM543 -13L302 729H207L-18 -13H86L148 206H367L433 -13H543ZM336 300H177Q198 369 219 437T255 578Q273 507 294 438T336 300Z" />
<glyph unicode="4;" glyph-name="Adieresis" horiz-adv-x="547" d="M372 763V873H278V763H372ZM228 763V873H134V763H228ZM543 -13L302 729H207L-18 -13H86L148 206H367L433 -13H543ZM336 300H177Q198 369 219 437T255 578Q273 507 294 438T336 300Z" />
<glyph unicode="5;" glyph-name="Aring" horiz-adv-x="547" d="M543 -13L309 709Q322 723 335 742T349 782Q349 798 343 816T325 848T295 872T253 882Q230 882 212 873T182 849T164 818T157 784Q157 761 171 741T201 706L-18 -13H86L148 206H367L433 -13H543ZM293
782Q293 768 281 753T254 738Q240 738 229 753T217 783Q217 797 227 811T255 826Q274 826 283 812T293 782ZM336 300H177Q198 369 219 437T255 578Q273 507 294 438T336 300Z" />
<glyph unicode="6;" glyph-name="AE" horiz-adv-x="822" d="M755 -13V81H461V322H725V416H461V635H745V729H263L-19 -13H87L165 195H364V-13H755ZM363 298H204L332 632H363V298Z" />
<glyph unicode="7;" glyph-name="Ccedilla" horiz-adv-x="593" d="M549 231L456 261Q449 222 437 187T405 126T360 84T297 69Q243 69 210 97T157 170T131 265T124 364Q124 411 131 461T158 552T212 621T299 648Q330 648 352 638T392 608T420 561T441 500L535
526Q523 573 503 612T454 680T386 725T300 741Q248 741 208 725T137 679T85 613T51 533T33 447T27 363Q27 310 36 249T70 133T135 37T240 -19L225 -86Q250 -86 268 -88T286 -109Q286 -123 275 -129T247 -136T215 -137T190 -136L184 -207Q206 -215 222 -217T252
-219Q274 -219 296 -213T335 -194T362 -161T373 -114Q373 -82 355 -62T310 -34L312 -25Q365 -23 405 -2T473 55T520 135T549 231Z" />
<glyph unicode="8;" glyph-name="Egrave" horiz-adv-x="547" d="M339 764L282 909H161L255 764H339ZM492 -13V81H145V323H434V417H145V635H479V729H49V-13H492Z" />
<glyph unicode="9;" glyph-name="Eacute" horiz-adv-x="547" d="M377 909H258L203 763H287L377 909ZM492 -13V81H145V323H434V417H145V635H479V729H49V-13H492Z" />
<glyph unicode="a;" glyph-name="Ecircumflex" horiz-adv-x="547" d="M401 765L308 909H225L136 764H242L269 815L294 765H401ZM492 -13V81H145V323H434V417H145V635H479V729H49V-13H492Z" />
<glyph unicode="b;" glyph-name="Edieresis" horiz-adv-x="547" d="M389 763V873H296V763H389ZM246 763V873H152V763H246ZM492 -13V81H145V323H434V417H145V635H479V729H49V-13H492Z" />
<glyph unicode="c;" glyph-name="Igrave" horiz-adv-x="228" d="M177 764L121 909H-1L94 764H177ZM158 -13V729H62V-13H158Z" />
<glyph unicode="d;" glyph-name="Iacute" horiz-adv-x="228" d="M215 909H96L41 763H125L215 909ZM158 -13V729H62V-13H158Z" />
<glyph unicode="e;" glyph-name="Icircumflex" horiz-adv-x="228" d="M239 765L146 909H63L-26 764H80L107 815L132 765H239ZM158 -13V729H62V-13H158Z" />
<glyph unicode="f;" glyph-name="Idieresis" horiz-adv-x="228" d="M227 763V873H133V763H227ZM84 763V873H-11V763H84ZM158 -13V729H62V-13H158Z" />
<glyph unicode="&#xd0;" glyph-name="Eth" horiz-adv-x="593" d="M537 362Q537 408 530 463T503 570T448 661T358 718Q333 726 305 727T254 729H48V396H-13V320H48V-13H263Q283 -13 305 -12T349 -4Q408 14 444 54T501 146T529 255T537 362ZM440 362Q440 327 437
286T423 208T392 140T338 94Q319 86 298 84T254 81H144V320H300V398H145V633H253Q274 633 298 632T339 622Q371 608 390 579T421 512T436 436T440 362Z" />
<glyph unicode="&#xd1;" glyph-name="Ntilde" horiz-adv-x="593" d="M431 886H361Q360 878 360 874Q360 870 359 865Q358 859 356 851T345 843Q334 843 323 849T300 863T275 877T245 884Q220 884 203 873T175 843T159 802T154 756H226Q226 780 230 788T242 796Q251
796 262 790T286 776T313 762T343 756Q370 756 387 767T413 798T427 840T431 886ZM514 -13V729H420V200L140 729H47V-13H141V516L420 -13H514Z" />
<glyph unicode="&#xd2;" glyph-name="Ograve" horiz-adv-x="638" d="M364 764L308 909H186L281 764H364ZM587 357Q587 398 581 442T561 529T525 611T472 679T400 725T306 742Q225 742 171 704T84 608T39 481T25 349Q25 288 40 222T89 101T176 11T305 -25Q383 -25
437 11T524 104T572 228T587 357ZM489 356Q489 309 480 258T450 165T394 95T305 67Q254 67 219 93T163 161T132 251T122 346Q122 374 124 406T132 470T149 530T177 580Q203 612 234 630T307 648Q359 648 394 620T450 549T480 454T489 356Z" />
<glyph unicode="&#xd3;" glyph-name="Oacute" horiz-adv-x="638" d="M421 909H303L247 763H331L421 909ZM587 357Q587 398 581 442T561 529T525 611T472 679T400 725T306 742Q225 742 171 704T84 608T39 481T25 349Q25 288 40 222T89 101T176 11T305 -25Q383 -25
437 11T524 104T572 228T587 357ZM489 356Q489 309 480 258T450 165T394 95T305 67Q254 67 219 93T163 161T132 251T122 346Q122 374 124 406T132 470T149 530T177 580Q203 612 234 630T307 648Q359 648 394 620T450 549T480 454T489 356Z" />
<glyph unicode="&#xd4;" glyph-name="Ocircumflex" horiz-adv-x="638" d="M436 765L343 909H260L171 764H277L304 815L329 765H436ZM587 357Q587 398 581 442T561 529T525 611T472 679T400 725T306 742Q225 742 171 704T84 608T39 481T25 349Q25 288 40 222T89
101T176 11T305 -25Q383 -25 437 11T524 104T572 228T587 357ZM489 356Q489 309 480 258T450 165T394 95T305 67Q254 67 219 93T163 161T132 251T122 346Q122 374 124 406T132 470T149 530T177 580Q203 612 234 630T307 648Q359 648 394 620T450 549T480 454T489
356Z" />
<glyph unicode="&#xd5;" glyph-name="Otilde" horiz-adv-x="638" d="M445 886H374Q373 878 373 873Q373 869 372 865Q372 858 370 851T358 843Q347 843 337 849T314 863T288 877T258 884Q233 884 216 873T188 843T173 802T168 756H240Q240 780 244 788T256 796Q264
796 275 790T299 776T326 762T357 756Q383 756 400 767T427 798T441 840T445 886ZM587 357Q587 398 581 442T561 529T525 611T472 679T400 725T306 742Q225 742 171 704T84 608T39 481T25 349Q25 288 40 222T89 101T176 11T305 -25Q383 -25 437 11T524 104T572
228T587 357ZM489 356Q489 309 480 258T450 165T394 95T305 67Q254 67 219 93T163 161T132 251T122 346Q122 374 124 406T132 470T149 530T177 580Q203 612 234 630T307 648Q359 648 394 620T450 549T480 454T489 356Z" />
<glyph unicode="&#xd6;" glyph-name="Odieresis" horiz-adv-x="638" d="M425 763V873H331V763H425ZM281 763V873H187V763H281ZM587 357Q587 398 581 442T561 529T525 611T472 679T400 725T306 742Q225 742 171 704T84 608T39 481T25 349Q25 288 40 222T89 101T176
11T305 -25Q383 -25 437 11T524 104T572 228T587 357ZM489 356Q489 309 480 258T450 165T394 95T305 67Q254 67 219 93T163 161T132 251T122 346Q122 374 124 406T132 470T149 530T177 580Q203 612 234 630T307 648Q359 648 394 620T450 549T480 454T489 356Z"
/>
<glyph unicode="&#xd7;" glyph-name="multiply" horiz-adv-x="480" d="M409 201L288 354L406 506L348 581L229 429L108 581L49 504L167 353L48 202L107 125L228 278L348 125L409 201Z" />
<glyph unicode="&#xd8;" glyph-name="Oslash" horiz-adv-x="638" d="M592 694L538 753L478 670Q441 705 403 723T308 741Q255 741 214 724T141 678T87 611T51 530T31 443T25 356Q25 318 28 287T38 228T56 171T84 109L20 19L74 -41L135 45Q172 10 211 -8T306 -26Q358
-26 398 -9T470 37T524 104T559 185T579 272T586 357Q586 428 573 484T527 603L592 694ZM422 593L147 204Q133 245 128 281T122 363Q122 411 130 461T160 553T218 620T309 647Q346 647 371 633T422 593ZM487 350Q487 303 478 254T447 163T390 96T301 69Q265 69
239 81T188 117L463 507Q476 469 481 430T487 350Z" />
<glyph unicode="&#xd9;" glyph-name="Ugrave" horiz-adv-x="593" d="M340 764L284 909H163L257 764H340ZM514 302V729H418V293Q418 247 415 207T397 137T354 90T275 72Q229 72 203 91T164 141T148 212T144 293V729H49V302Q49 243 56 185T88 80T158 4T282 -25Q358
-25 404 4T474 81T506 187T514 302Z" />
<glyph unicode="&#xda;" glyph-name="Uacute" horiz-adv-x="593" d="M397 909H278L223 763H307L397 909ZM514 302V729H418V293Q418 247 415 207T397 137T354 90T275 72Q229 72 203 91T164 141T148 212T144 293V729H49V302Q49 243 56 185T88 80T158 4T282 -25Q358
-25 404 4T474 81T506 187T514 302Z" />
<glyph unicode="&#xdb;" glyph-name="Ucircumflex" horiz-adv-x="593" d="M412 765L319 909H236L147 764H253L280 815L305 765H412ZM514 302V729H418V293Q418 247 415 207T397 137T354 90T275 72Q229 72 203 91T164 141T148 212T144 293V729H49V302Q49 243 56
185T88 80T158 4T282 -25Q358 -25 404 4T474 81T506 187T514 302Z" />
<glyph unicode="&#xdc;" glyph-name="Udieresis" horiz-adv-x="593" d="M401 763V873H307V763H401ZM257 763V873H163V763H257ZM514 302V729H418V293Q418 247 415 207T397 137T354 90T275 72Q229 72 203 91T164 141T148 212T144 293V729H49V302Q49 243 56 185T88
80T158 4T282 -25Q358 -25 404 4T474 81T506 187T514 302Z" />
<glyph unicode="&#xdd;" glyph-name="Yacute" horiz-adv-x="547" d="M375 909H256L200 763H284L375 909ZM537 729H426Q382 644 340 566T260 407Q222 488 181 566T95 729H-20L207 301V-13H304V301L537 729Z" />
<glyph unicode="&#xde;" glyph-name="Thorn" horiz-adv-x="547" d="M500 361Q500 386 496 411T482 460Q467 498 445 521T396 556T336 571T270 575H145V729H49V-13H145V138H276Q298 138 322 140T370 150T415 170T451 204Q477 239 488 279T500 361ZM404 360Q404
296 375 266T280 236H145V481H279Q295 481 314 481T345 475Q360 469 371 457T390 429T400 396T404 360Z" />
<glyph unicode="&#xdf;" glyph-name="germandbls" horiz-adv-x="502" d="M466 148Q466 181 455 205T426 250T386 286T340 320Q325 331 308 346T290 382Q290 399 303 421T333 469T363 524T377 585Q377 618 366 646T334 696T285 729T222 741Q164 741 129 717T76
656T52 574T46 488V-13H139V496Q139 518 140 546T148 599T171 641T220 659Q249 659 267 641T285 594Q285 569 271 545T240 495T209 444T195 387Q195 356 208 334T242 292T285 257T328 224T361 188T375 145Q375 130 371 115T358 88T339 68T313 60Q298 60 286 70T265
94T248 125T236 153L163 110Q172 83 186 59T219 16T262 -14T315 -25Q352 -25 380 -10T427 29T456 85T466 148Z" />
<glyph unicode="&#xe0;" glyph-name="agrave" horiz-adv-x="457" d="M287 587L230 733H109L203 587H287ZM421 -13Q406 23 400 67T392 159T391 252T392 337Q392 381 387 419T365 486T315 531T225 548Q144 548 95 510T31 379L117 364Q123 392 130 411T147 441T174
458T214 463Q264 463 282 433T300 352V335Q265 321 226 316T149 302T80 273T30 209Q22 191 19 172T16 135Q16 65 55 21T168 -24Q213 -24 246 -9T309 34Q311 24 314 13T323 -13H421ZM300 230Q300 197 295 166T276 111T240 73T182 58Q148 58 130 78T112 134Q112 171
130 187T178 212Q209 221 240 226T300 245V230Z" />
<glyph unicode="&#xe1;" glyph-name="aacute" horiz-adv-x="457" d="M339 733H220L165 586H249L339 733ZM421 -13Q406 23 400 67T392 159T391 252T392 337Q392 381 387 419T365 486T315 531T225 548Q144 548 95 510T31 379L117 364Q123 392 130 411T147 441T174
458T214 463Q264 463 282 433T300 352V335Q265 321 226 316T149 302T80 273T30 209Q22 191 19 172T16 135Q16 65 55 21T168 -24Q213 -24 246 -9T309 34Q311 24 314 13T323 -13H421ZM300 230Q300 197 295 166T276 111T240 73T182 58Q148 58 130 78T112 134Q112 171
130 187T178 212Q209 221 240 226T300 245V230Z" />
<glyph unicode="&#xe2;" glyph-name="acircumflex" horiz-adv-x="457" d="M347 588L254 733H171L81 588H188L214 639L240 588H347ZM421 -13Q406 23 400 67T392 159T391 252T392 337Q392 381 387 419T365 486T315 531T225 548Q144 548 95 510T31 379L117 364Q123
392 130 411T147 441T174 458T214 463Q264 463 282 433T300 352V335Q265 321 226 316T149 302T80 273T30 209Q22 191 19 172T16 135Q16 65 55 21T168 -24Q213 -24 246 -9T309 34Q311 24 314 13T323 -13H421ZM300 230Q300 197 295 166T276 111T240 73T182 58Q148
58 130 78T112 134Q112 171 130 187T178 212Q209 221 240 226T300 245V230Z" />
<glyph unicode="&#xe3;" glyph-name="atilde" horiz-adv-x="457" d="M354 721H283Q282 715 282 711Q282 708 282 704Q281 697 279 688T267 679Q256 679 245 685T222 699T197 713T167 720Q142 720 125 709T97 679T82 637T77 591H148Q148 615 153 623T165 632Q173
632 184 626T208 612T235 598T266 591Q292 591 309 603T336 633T350 675T354 721ZM421 -13Q406 23 400 67T392 159T391 252T392 337Q392 381 387 419T365 486T315 531T225 548Q144 548 95 510T31 379L117 364Q123 392 130 411T147 441T174 458T214 463Q264 463
282 433T300 352V335Q265 321 226 316T149 302T80 273T30 209Q22 191 19 172T16 135Q16 65 55 21T168 -24Q213 -24 246 -9T309 34Q311 24 314 13T323 -13H421ZM300 230Q300 197 295 166T276 111T240 73T182 58Q148 58 130 78T112 134Q112 171 130 187T178 212Q209
221 240 226T300 245V230Z" />
<glyph unicode="&#xe4;" glyph-name="adieresis" horiz-adv-x="457" d="M335 624V733H241V624H335ZM191 624V733H97V624H191ZM421 -13Q406 23 400 67T392 159T391 252T392 337Q392 381 387 419T365 486T315 531T225 548Q144 548 95 510T31 379L117 364Q123 392
130 411T147 441T174 458T214 463Q264 463 282 433T300 352V335Q265 321 226 316T149 302T80 273T30 209Q22 191 19 172T16 135Q16 65 55 21T168 -24Q213 -24 246 -9T309 34Q311 24 314 13T323 -13H421ZM300 230Q300 197 295 166T276 111T240 73T182 58Q148 58
130 78T112 134Q112 171 130 187T178 212Q209 221 240 226T300 245V230Z" />
<glyph unicode="&#xe5;" glyph-name="aring" horiz-adv-x="457" d="M311 654Q311 670 305 688T287 720T257 744T215 754Q192 754 174 745T144 721T126 690T119 656Q119 639 124 621T142 588T172 564T215 554Q239 554 257 563T287 587T305 619T311 654ZM421 -13Q406
23 400 67T392 159T391 252T392 337Q392 381 387 419T365 486T315 531T225 548Q144 548 95 510T31 379L117 364Q123 392 130 411T147 441T174 458T214 463Q264 463 282 433T300 352V335Q265 321 226 316T149 302T80 273T30 209Q22 191 19 172T16 135Q16 65 55 21T168
-24Q213 -24 246 -9T309 34Q311 24 314 13T323 -13H421ZM255 653Q255 638 245 624T217 609Q198 609 189 624T179 654Q179 670 188 684T217 698Q235 698 245 684T255 653ZM300 230Q300 197 295 166T276 111T240 73T182 58Q148 58 130 78T112 134Q112 171 130 187T178
212Q209 221 240 226T300 245V230Z" />
<glyph unicode="&#xe6;" glyph-name="ae" horiz-adv-x="730" d="M677 234V276Q677 318 668 365T636 453T577 521T484 548Q443 548 412 534T356 490Q331 525 293 536T216 548Q132 548 89 505T28 374L113 361Q118 391 124 410T142 442T170 459T212 464Q239 464 254
456T278 432T288 394T291 346V332Q258 321 221 316T148 300T82 272T32 218Q13 180 13 134Q13 100 23 71T52 21T100 -12T164 -24Q218 -24 257 1T329 63Q355 24 391 0T479 -24Q559 -24 605 25T672 156L581 169Q570 119 547 90T485 61Q456 61 430 82Q397 110 389 149T380
234H677ZM586 318H379Q382 344 388 370T407 416T438 450T484 463Q511 463 529 450T559 417T577 370T586 318ZM292 241Q292 228 291 207T285 164T271 120T246 85Q216 58 176 58Q143 58 126 78T108 134Q108 166 130 186T183 218T244 235T292 241Z" />
<glyph unicode="&#xe7;" glyph-name="ccedilla" horiz-adv-x="411" d="M398 176L310 189Q307 161 301 138T283 97T256 69T217 59Q184 59 164 79T133 130T119 196T115 263Q115 293 119 328T134 394T166 445T220 465Q256 465 275 435T304 358L390 373Q377 452 335
500T216 548Q156 548 118 519T59 447T30 353T22 259Q22 223 27 182T48 101T89 31T158 -15L144 -76Q170 -76 188 -78T206 -99Q206 -114 193 -120T157 -127H109L104 -197Q125 -205 141 -207T171 -209Q193 -209 215 -203T254 -184T281 -151T292 -104Q292 -72 274 -53T229
-25V-24Q268 -21 297 -4T347 40T380 102T398 176Z" />
<glyph unicode="&#xe8;" glyph-name="egrave" horiz-adv-x="457" d="M275 587L219 733H98L192 587H275ZM415 232V268Q415 311 406 360T375 451T314 520T218 548Q158 548 119 519T57 447T25 352T16 257Q16 211 25 162T57 71T119 3T219 -24Q298 -24 344 23T410 153L319
165Q304 118 281 89T217 60Q188 60 168 76T135 117T115 172T106 232H415ZM321 319H112Q114 344 121 370T142 416T173 450T218 463Q244 463 262 450T292 417T311 370T321 319Z" />
<glyph unicode="&#xe9;" glyph-name="eacute" horiz-adv-x="457" d="M340 733H221L166 586H250L340 733ZM415 232V268Q415 311 406 360T375 451T314 520T218 548Q158 548 119 519T57 447T25 352T16 257Q16 211 25 162T57 71T119 3T219 -24Q298 -24 344 23T410
153L319 165Q304 118 281 89T217 60Q188 60 168 76T135 117T115 172T106 232H415ZM321 319H112Q114 344 121 370T142 416T173 450T218 463Q244 463 262 450T292 417T311 370T321 319Z" />
<glyph unicode="&#xea;" glyph-name="ecircumflex" horiz-adv-x="457" d="M347 588L254 733H171L82 588H188L215 639L240 588H347ZM415 232V268Q415 311 406 360T375 451T314 520T218 548Q158 548 119 519T57 447T25 352T16 257Q16 211 25 162T57 71T119 3T219
-24Q298 -24 344 23T410 153L319 165Q304 118 281 89T217 60Q188 60 168 76T135 117T115 172T106 232H415ZM321 319H112Q114 344 121 370T142 416T173 450T218 463Q244 463 262 450T292 417T311 370T321 319Z" />
<glyph unicode="&#xeb;" glyph-name="edieresis" horiz-adv-x="457" d="M335 624V733H241V624H335ZM192 624V733H97V624H192ZM415 232V268Q415 311 406 360T375 451T314 520T218 548Q158 548 119 519T57 447T25 352T16 257Q16 211 25 162T57 71T119 3T219 -24Q298
-24 344 23T410 153L319 165Q304 118 281 89T217 60Q188 60 168 76T135 117T115 172T106 232H415ZM321 319H112Q114 344 121 370T142 416T173 450T218 463Q244 463 262 450T292 417T311 370T321 319Z" />
<glyph unicode="&#xec;" glyph-name="igrave" horiz-adv-x="228" d="M170 587L113 733H-8L86 587H170ZM156 -13V536H65V-13H156Z" />
<glyph unicode="&#xed;" glyph-name="iacute" horiz-adv-x="228" d="M233 733H115L59 586H143L233 733ZM156 -13V536H65V-13H156Z" />
<glyph unicode="&#xee;" glyph-name="icircumflex" horiz-adv-x="228" d="M245 588L152 733H69L-20 588H86L113 639L138 588H245ZM156 -13V536H65V-13H156Z" />
<glyph unicode="&#xef;" glyph-name="idieresis" horiz-adv-x="228" d="M229 624V733H135V624H229ZM86 624V733H-9V624H86ZM156 -13V536H65V-13H156Z" />
<glyph unicode="&#xf0;" glyph-name="eth" horiz-adv-x="458" d="M416 255Q416 357 385 449T297 625L360 662L337 727L249 675Q226 700 195 729H93Q131 697 151 677T188 638L94 584L116 521L223 583Q233 567 240 552T256 521Q244 526 231 529T201 532Q145 532
109 503T53 432T24 340T16 252Q16 208 25 159T56 69T118 2T216 -25Q273 -25 311 2T373 72T406 163T416 255ZM323 257Q323 228 318 193T301 128T268 78T215 58Q183 58 163 76T130 123T113 185T108 249Q108 279 112 314T127 380T159 430T213 451Q245 451 266 432T300
385T318 322T323 257Z" />
<glyph unicode="&#xf1;" glyph-name="ntilde" horiz-adv-x="457" d="M367 721H296Q295 713 295 709Q295 705 294 701Q293 694 291 687T280 679Q269 679 258 685T235 699T210 713T180 720Q155 720 138 709T110 679T95 637T90 591H161Q161 616 165 624T177 632Q185
632 196 626T220 612T248 598T278 591Q305 591 322 603T349 633T363 675T367 721ZM394 -13V330Q394 366 390 404T369 475T323 527T241 548Q203 548 174 533T123 492V536H39V-13H132V295Q132 324 135 353T149 406T178 445T228 460Q252 460 266 448T288 418T298 376T301
329V-13H394Z" />
<glyph unicode="&#xf2;" glyph-name="ograve" horiz-adv-x="457" d="M276 587L219 733H98L192 587H276ZM419 269Q419 314 409 363T376 453T314 521T216 548Q155 548 116 520T54 450T22 358T13 262Q13 217 22 167T54 74T116 4T216 -24Q273 -24 322 10Q353 33 372
63T402 128T415 199T419 269ZM326 265Q326 234 322 198T305 132T272 81T217 60Q184 60 163 80T129 130T112 196T107 262Q107 292 111 327T128 393T162 444T217 464Q249 464 270 444T303 395T321 330T326 265Z" />
<glyph unicode="&#xf3;" glyph-name="oacute" horiz-adv-x="457" d="M340 733H221L166 586H250L340 733ZM419 269Q419 314 409 363T376 453T314 521T216 548Q155 548 116 520T54 450T22 358T13 262Q13 217 22 167T54 74T116 4T216 -24Q273 -24 322 10Q353 33 372
63T402 128T415 199T419 269ZM326 265Q326 234 322 198T305 132T272 81T217 60Q184 60 163 80T129 130T112 196T107 262Q107 292 111 327T128 393T162 444T217 464Q249 464 270 444T303 395T321 330T326 265Z" />
<glyph unicode="&#xf4;" glyph-name="ocircumflex" horiz-adv-x="457" d="M348 588L255 733H172L82 588H189L215 639L241 588H348ZM419 269Q419 314 409 363T376 453T314 521T216 548Q155 548 116 520T54 450T22 358T13 262Q13 217 22 167T54 74T116 4T216 -24Q273
-24 322 10Q353 33 372 63T402 128T415 199T419 269ZM326 265Q326 234 322 198T305 132T272 81T217 60Q184 60 163 80T129 130T112 196T107 262Q107 292 111 327T128 393T162 444T217 464Q249 464 270 444T303 395T321 330T326 265Z" />
<glyph unicode="&#xf5;" glyph-name="otilde" horiz-adv-x="457" d="M355 721H284Q283 715 283 711Q283 708 283 704Q282 697 280 688T268 679Q257 679 246 685T223 699T198 713T168 720Q143 720 126 709T98 679T83 637T78 591H149Q149 615 154 623T166 632Q174
632 185 626T209 612T236 598T267 591Q293 591 310 603T337 633T351 675T355 721ZM419 269Q419 314 409 363T376 453T314 521T216 548Q155 548 116 520T54 450T22 358T13 262Q13 217 22 167T54 74T116 4T216 -24Q273 -24 322 10Q353 33 372 63T402 128T415 199T419
269ZM326 265Q326 234 322 198T305 132T272 81T217 60Q184 60 163 80T129 130T112 196T107 262Q107 292 111 327T128 393T162 444T217 464Q249 464 270 444T303 395T321 330T326 265Z" />
<glyph unicode="&#xf6;" glyph-name="odieresis" horiz-adv-x="457" d="M336 624V733H242V624H336ZM192 624V733H98V624H192ZM419 269Q419 314 409 363T376 453T314 521T216 548Q155 548 116 520T54 450T22 358T13 262Q13 217 22 167T54 74T116 4T216 -24Q273
-24 322 10Q353 33 372 63T402 128T415 199T419 269ZM326 265Q326 234 322 198T305 132T272 81T217 60Q184 60 163 80T129 130T112 196T107 262Q107 292 111 327T128 393T162 444T217 464Q249 464 270 444T303 395T321 330T326 265Z" />
<glyph unicode="&#xf7;" glyph-name="divide" horiz-adv-x="452" d="M264 445V555H165V445H264ZM412 307V399H18V307H412ZM264 151V261H165V151H264Z" />
<glyph unicode="&#xf8;" glyph-name="oslash" horiz-adv-x="502" d="M441 260Q441 315 433 359T398 452L438 517L382 563L347 510Q323 527 297 537T237 548Q192 548 158 528T96 476Q77 453 66 426T48 369T39 309T37 253Q37 204 45 156T82 64L44 2L95 -50L132 9Q180
-25 237 -25Q298 -25 337 2T400 72T432 164T441 260ZM302 435L141 167Q134 191 132 215T130 266Q130 297 135 331T153 395T187 443T242 463Q259 463 273 455T302 435ZM348 258Q348 226 343 192T325 128T290 80T233 61Q203 61 180 81L339 347Q348 303 348 258Z"
/>
<glyph unicode="&#xf9;" glyph-name="ugrave" horiz-adv-x="457" d="M291 587L235 733H114L208 587H291ZM391 -13V536H300V233Q300 204 297 174T283 118T253 78T202 62Q171 62 156 79T134 122T128 174Q128 202 128 223V536H38V191Q38 165 39 138T48 84T71 34T116
-5Q150 -24 189 -24Q226 -24 255 -9T305 32V-13H391Z" />
<glyph unicode="&#xfa;" glyph-name="uacute" horiz-adv-x="457" d="M335 733H216L161 586H245L335 733ZM391 -13V536H300V233Q300 204 297 174T283 118T253 78T202 62Q171 62 156 79T134 122T128 174Q128 202 128 223V536H38V191Q38 165 39 138T48 84T71 34T116
-5Q150 -24 189 -24Q226 -24 255 -9T305 32V-13H391Z" />
<glyph unicode="&#xfb;" glyph-name="ucircumflex" horiz-adv-x="457" d="M346 588L253 733H170L81 588H187L213 639L239 588H346ZM391 -13V536H300V233Q300 204 297 174T283 118T253 78T202 62Q171 62 156 79T134 122T128 174Q128 202 128 223V536H38V191Q38
165 39 138T48 84T71 34T116 -5Q150 -24 189 -24Q226 -24 255 -9T305 32V-13H391Z" />
<glyph unicode="&#xfc;" glyph-name="udieresis" horiz-adv-x="457" d="M334 624V733H240V624H334ZM190 624V733H96V624H190ZM391 -13V536H300V233Q300 204 297 174T283 118T253 78T202 62Q171 62 156 79T134 122T128 174Q128 202 128 223V536H38V191Q38 165 39
138T48 84T71 34T116 -5Q150 -24 189 -24Q226 -24 255 -9T305 32V-13H391Z" />
<glyph unicode="&#xfd;" glyph-name="yacute" horiz-adv-x="411" d="M322 733H203L148 586H232L322 733ZM400 536H308L218 223Q207 189 200 159Q177 252 150 345T95 536H-2L156 -1Q152 -16 148 -39T136 -85T115 -124T79 -140Q71 -140 59 -138T23 -127L36 -205Q52
-215 65 -218T92 -221Q130 -221 155 -198T196 -142T223 -71T241 -6L400 536Z" />
<glyph unicode="&#xfe;" glyph-name="thorn" horiz-adv-x="457" d="M416 263Q416 303 408 351T378 442T321 514T229 543Q195 543 172 532T130 500V729H39V-212H132V16Q150 -2 172 -13T226 -25Q254 -25 278 -15T323 12Q351 34 369 64T397 128T412 197T416 263ZM325
263Q325 234 321 199T306 132T274 80T223 59Q192 59 173 79T143 129T128 193T124 255Q124 283 128 318T145 386T176 440T226 462Q256 462 275 442T305 391T321 326T325 263Z" />
<glyph unicode="&#xff;" glyph-name="ydieresis" horiz-adv-x="411" d="M319 624V733H225V624H319ZM176 624V733H81V624H176ZM400 536H308L218 223Q207 189 200 159Q177 252 150 345T95 536H-2L156 -1Q152 -16 148 -39T136 -85T115 -124T79 -140Q71 -140 59 -138T23
-127L36 -205Q52 -215 65 -218T92 -221Q130 -221 155 -198T196 -142T223 -71T241 -6L400 536Z" />
</font>
</defs>
</svg>
